<svg width="60" height="60" viewBox="0 0 60 60" fill="none" xmlns="http://www.w3.org/2000/svg">
<path d="M7.5 7.5V50C7.5 50.663 7.76339 51.2989 8.23223 51.7678C8.70107 52.2366 9.33696 52.5 10 52.5H52.5V47.5H12.5V7.5H7.5Z" fill="#0E9F6E"/>
<path d="M38.2324 36.7675C38.4644 36.9998 38.7399 37.1842 39.0432 37.31C39.3465 37.4357 39.6716 37.5005 39.9999 37.5005C40.3283 37.5005 40.6534 37.4357 40.9567 37.31C41.2599 37.1842 41.5355 36.9998 41.7674 36.7675L54.2674 24.2675L50.7324 20.7325L39.9999 31.465L34.2674 25.7325C34.0355 25.5001 33.7599 25.3158 33.4567 25.19C33.1534 25.0642 32.8283 24.9995 32.4999 24.9995C32.1716 24.9995 31.8465 25.0642 31.5432 25.19C31.2399 25.3158 30.9644 25.5001 30.7324 25.7325L18.2324 38.2325L21.7674 41.7675L32.4999 31.035L38.2324 36.7675Z" fill="#0E9F6E"/>
</svg>
