<svg width="200" height="200" viewBox="0 0 200 200" fill="none" xmlns="http://www.w3.org/2000/svg">
<path d="M133.333 16.6666H66.6667C39.0917 16.6666 16.6667 39.0916 16.6667 66.6666V166.667C16.6667 168.877 17.5447 170.996 19.1075 172.559C20.6703 174.122 22.7899 175 25.0001 175H133.333C160.908 175 183.333 152.575 183.333 125V66.6666C183.333 39.0916 160.908 16.6666 133.333 16.6666ZM166.667 125C166.667 143.383 151.717 158.333 133.333 158.333H33.3334V66.6666C33.3334 48.2833 48.2834 33.3333 66.6667 33.3333H133.333C151.717 33.3333 166.667 48.2833 166.667 66.6666V125Z" fill="#BCF0DA"/>
<path d="M79.1667 108.333C86.0703 108.333 91.6667 102.737 91.6667 95.8334C91.6667 88.9298 86.0703 83.3334 79.1667 83.3334C72.2632 83.3334 66.6667 88.9298 66.6667 95.8334C66.6667 102.737 72.2632 108.333 79.1667 108.333Z" fill="#BCF0DA"/>
<path d="M120.833 108.333C127.737 108.333 133.333 102.737 133.333 95.8334C133.333 88.9298 127.737 83.3334 120.833 83.3334C113.93 83.3334 108.333 88.9298 108.333 95.8334C108.333 102.737 113.93 108.333 120.833 108.333Z" fill="#BCF0DA"/>
</svg>
