<svg width="40" height="38" viewBox="0 0 40 38" fill="none" xmlns="http://www.w3.org/2000/svg">
<path d="M35.5224 17.992L7.42319 5.68427C7.14027 5.55968 6.82513 5.5125 6.51451 5.54822C6.20388 5.58394 5.91056 5.7011 5.66873 5.88604C5.4269 6.07098 5.24652 6.31609 5.14862 6.59279C5.05071 6.86949 5.03931 7.16639 5.11575 7.44889L8.32071 19.3843L5.11575 31.3197C5.0386 31.6023 5.0495 31.8995 5.14717 32.1765C5.24485 32.4536 5.42527 32.699 5.66731 32.8841C5.90936 33.0692 6.20304 33.1863 6.51399 33.2218C6.82493 33.2572 7.1403 33.2095 7.42319 33.0843L35.5224 20.7766C35.8063 20.6523 36.0464 20.4554 36.2146 20.2089C36.3828 19.9623 36.4721 19.6763 36.4721 19.3843C36.4721 19.0922 36.3828 18.8062 36.2146 18.5597C36.0464 18.3131 35.8063 18.1162 35.5224 17.992ZM9.16699 28.9181L10.5538 23.7535L19.9422 19.3843L10.5538 15.015L9.16699 9.85043L30.9356 19.3843L9.16699 28.9181Z" fill="white"/>
</svg>
