<svg width="200" height="200" viewBox="0 0 200 200" fill="none" xmlns="http://www.w3.org/2000/svg">
<path d="M100 83.3333C109.592 83.3333 116.667 76.2667 116.667 66.6667C116.667 57.0667 109.592 50 100 50C90.4167 50 83.3334 57.0667 83.3334 66.6667C83.3334 76.2667 90.4167 83.3333 100 83.3333ZM100 91.6667C81.5917 91.6667 66.6667 105.1 66.6667 121.667V124.883H133.333V121.667C133.333 105.1 118.408 91.6667 100 91.6667Z" fill="#BCF0DA"/>
<path d="M158.333 16.6666H41.6667C32.475 16.6666 25 24.1416 25 33.3333V141.667C25 150.858 32.475 158.333 41.6667 158.333H75L100 183.333L125 158.333H158.333C167.525 158.333 175 150.858 175 141.667V33.3333C175 24.1416 167.525 16.6666 158.333 16.6666ZM116.667 141.667L100 158.333L83.3333 141.667H41.6667V33.3333H158.333L158.35 141.667H116.667Z" fill="#BCF0DA"/>
</svg>
