<svg width="60" height="60" viewBox="0 0 60 60" fill="none" xmlns="http://www.w3.org/2000/svg">
<path d="M25.0657 33.1974L22.2532 30.9474C22.0877 30.8151 21.866 30.7373 21.6321 30.7295L21.8169 30.647C22.2945 30.4345 22.6824 30.1134 22.9315 29.7244L24.0925 27.915L27.12 26.565C27.3372 26.4682 27.4974 26.3063 27.5653 26.115C27.6333 25.9236 27.6035 25.7186 27.4825 25.5448L25.6566 22.9243C25.5355 22.7506 25.3332 22.6225 25.094 22.5681C24.8549 22.5138 24.5985 22.5376 24.3814 22.6344L24.1539 22.7358L24.9375 21.9L22.5344 20.458C22.3619 20.3544 22.2456 20.2018 22.2097 20.0316C22.1738 19.8615 22.2208 19.6868 22.3412 19.5435C22.4615 19.4003 22.646 19.2995 22.8566 19.262C23.0671 19.2244 23.2876 19.2529 23.4727 19.3416L31.3927 23.1431L32.3574 21.8569L24.4374 18.0553C23.8402 17.7686 23.1283 17.6763 22.4486 17.7974C21.7688 17.9185 21.1731 18.2438 20.7845 18.7062C20.3959 19.1685 20.2441 19.7326 20.3604 20.2819C20.4766 20.8312 20.8521 21.3238 21.4092 21.658L23.6098 22.9781L21.3539 23.9842L18.8196 23.8226C18.5163 23.8036 18.2112 23.8248 17.9166 23.8854C18.0393 23.7506 18.1427 23.6051 18.2249 23.4518L19.5394 20.9749C19.7069 20.6585 19.7804 20.3153 19.7542 19.9723L19.7073 19.3738C19.6991 19.2633 19.7229 19.1527 19.777 19.0508C19.8311 18.9488 19.9139 18.8583 20.019 18.7863L20.5899 18.3973C20.9164 18.1742 21.1739 17.8936 21.3422 17.5775L22.4226 15.5421C22.6367 15.1399 22.6966 14.6959 22.5947 14.2665L22.1234 12.2677L23.478 9.71541C23.5751 9.53232 23.5774 9.32586 23.4843 9.14143C23.3912 8.957 23.2103 8.80971 22.9814 8.73197L19.53 7.55963C19.4167 7.52114 19.295 7.50089 19.1719 7.50003C19.0488 7.49917 18.9267 7.51771 18.8125 7.55461C18.6984 7.5915 18.5944 7.64602 18.5066 7.71505C18.4188 7.78409 18.3488 7.86628 18.3007 7.95694L16.946 10.5094L14.8211 11.6262C14.3642 11.8659 14.0066 12.2087 13.7935 12.6112L12.7133 14.6466C12.546 14.963 12.4724 15.3062 12.4985 15.6491L12.5454 16.2476C12.5537 16.3582 12.5298 16.4688 12.4757 16.5707C12.4215 16.6727 12.3386 16.7632 12.2335 16.8353L11.6629 17.2242C11.3362 17.4473 11.0786 17.7279 10.9103 18.0441L9.59569 20.5208C9.30887 21.0611 9.30213 21.6706 9.57695 22.2149C9.85177 22.7593 10.3856 23.194 11.0611 23.4235L14.5967 24.6244C14.9362 24.7402 15.3014 24.8005 15.6706 24.8015L14.8385 25.1726C14.4635 25.3403 14.1422 25.5751 13.8996 25.8588L13.4778 26.3542C13.3994 26.4455 13.2958 26.5211 13.1748 26.575C13.0539 26.6289 12.919 26.6597 12.7807 26.6649L12.032 26.6918C11.6029 26.7076 11.1842 26.8027 10.8087 26.9697L7.87022 28.2799C7.22988 28.5662 6.75767 29.0441 6.55716 29.6086C6.35664 30.1731 6.44421 30.7782 6.80065 31.2911L8.67084 33.975C9.02842 34.4876 9.62571 34.8656 10.3315 35.0261C11.0373 35.1865 11.7938 35.1163 12.4349 34.8308L15.373 33.5206C15.7478 33.3529 16.069 33.118 16.3115 32.8344L16.7333 32.3391C16.8116 32.2477 16.9152 32.1721 17.0361 32.1182C17.157 32.0643 17.2919 32.0335 17.4301 32.0283L18.1791 32.0014C18.6081 31.9856 19.0268 31.8905 19.4022 31.7235L20.6544 31.1651L18.114 33.1973C17.9044 33.366 17.655 33.4997 17.3803 33.5908C17.1056 33.6818 16.8111 33.7283 16.5137 33.7277H16.4332C15.864 33.7265 15.3002 33.8156 14.7744 33.9898C14.2485 34.1641 13.7711 34.4201 13.3697 34.7429L8.41795 38.7051C8.12695 38.9379 7.89611 39.2142 7.73862 39.5184C7.58113 39.8226 7.50007 40.1486 7.50007 40.4778C7.50007 40.8071 7.58113 41.1331 7.73862 41.4372C7.89611 41.7414 8.12695 42.0178 8.41795 42.2506L10.9375 44.2657C11.5256 44.7351 12.3225 44.9988 13.1534 44.9988C13.9842 44.9988 14.7811 44.7351 15.3693 44.2657L20.3217 40.3037C20.7254 39.9826 21.0453 39.6006 21.2632 39.1799C21.481 38.7592 21.5923 38.3081 21.5908 37.8528V37.7885C21.5899 37.5506 21.6481 37.3149 21.7619 37.0952C21.8758 36.8754 22.0429 36.6759 22.2538 36.5081L25.0663 34.2581C25.1533 34.1885 25.2223 34.1057 25.2694 34.0147C25.3165 33.9237 25.3407 33.8262 25.3406 33.7277C25.3406 33.6292 25.3163 33.5317 25.2691 33.4407C25.2219 33.3497 25.1528 33.2671 25.0657 33.1974ZM24.4756 24.3099L25.3885 25.6202L23.7506 26.3505L22.8379 25.0403L24.4756 24.3099ZM19.6602 9.23344L21.386 9.81975L20.6534 11.2004L18.9273 10.6141L19.6602 9.23344ZM15.3296 23.2437L11.7939 22.0428C11.5762 21.9688 11.4041 21.8286 11.3155 21.6532C11.2269 21.4777 11.2291 21.2813 11.3215 21.1071L12.6359 18.6302C12.6903 18.5283 12.7733 18.4378 12.8786 18.3658L13.4492 17.9769C13.7754 17.7535 14.0325 17.4727 14.2003 17.1565C14.3681 16.8404 14.4422 16.4974 14.4165 16.1544L14.3697 15.5559C14.3613 15.4454 14.3851 15.3347 14.439 15.2327L15.5192 13.1974C15.5878 13.0676 15.7031 12.957 15.8505 12.8798L17.7933 11.8586L20.3214 12.7173L20.7523 14.5449C20.7851 14.6833 20.7658 14.8264 20.6969 14.9559L19.6172 16.9914C19.563 17.0933 19.48 17.1838 19.3747 17.2557L18.8039 17.6446C18.4778 17.868 18.2207 18.1488 18.0529 18.465C17.8851 18.7812 17.8111 19.1242 17.8368 19.4671L17.8837 20.0657C17.892 20.1762 17.8683 20.2868 17.8144 20.3888L16.499 22.8656C16.4532 22.9519 16.3867 23.0301 16.3031 23.0957C16.2196 23.1614 16.1207 23.2133 16.0121 23.2483C15.9035 23.2834 15.7873 23.3011 15.6702 23.3002C15.5531 23.2994 15.4374 23.2802 15.3296 23.2435V23.2437ZM18.4899 30.4134C18.3688 30.4672 18.2339 30.4979 18.0955 30.5031L17.3467 30.5299C16.9178 30.5461 16.4994 30.6416 16.1243 30.8089C15.7493 30.9762 15.4277 31.2107 15.1849 31.494L14.7631 31.9893C14.6848 32.0807 14.5812 32.1565 14.4603 32.2106L11.5224 33.5207C11.3157 33.6127 11.0718 33.6353 10.8443 33.5836C10.6168 33.5319 10.4242 33.4101 10.3089 33.2449L8.43846 30.5609C8.32352 30.3956 8.29527 30.2005 8.3599 30.0185C8.42454 29.8365 8.57678 29.6824 8.78323 29.5901L11.7212 28.28C11.8423 28.2262 11.9772 28.1955 12.1156 28.1903L12.8644 28.1634C13.2933 28.1472 13.7117 28.0517 14.0868 27.8845C14.4619 27.7172 14.7834 27.4827 15.0263 27.1994L15.4481 26.7041C15.5263 26.6127 15.6299 26.5369 15.7508 26.4829L18.1657 25.4063C18.2982 25.347 18.4475 25.3159 18.5993 25.316C18.6228 25.316 18.6468 25.3166 18.6707 25.3182L20.9878 25.4659L22.3251 27.385L21.2636 29.0393C21.1833 29.1647 21.0582 29.2683 20.9042 29.3368L18.4899 30.4134ZM14.043 43.2051C13.8067 43.3936 13.4865 43.4995 13.1528 43.4995C12.819 43.4995 12.4989 43.3936 12.2626 43.2051L9.74311 41.1894C9.50704 41.0006 9.37442 40.7444 9.37442 40.4773C9.37442 40.2102 9.50704 39.9541 9.74311 39.7652L13.1521 37.038L17.4512 40.4773L14.043 43.2051ZM19.7148 37.7885V37.8528C19.7157 38.1111 19.6526 38.3669 19.529 38.6056C19.4055 38.8442 19.224 39.0609 18.9951 39.243L18.7773 39.4171L14.4785 35.9778L14.6962 35.8037C14.9238 35.6206 15.1947 35.4754 15.493 35.3765C15.7912 35.2777 16.1111 35.2271 16.4339 35.2278H16.5144C17.2881 35.2294 18.0466 35.0564 18.7028 34.7286L20.3393 36.0375C19.9295 36.5626 19.7132 37.1695 19.7152 37.7885H19.7148ZM21.5898 34.9171L20.1035 33.7278L21.5902 32.5385L23.0769 33.7278L21.5898 34.9171Z" fill="#0E9F6E"/>
<path d="M51.3732 17.7907L52.6876 14.7878C52.7283 14.6949 52.7457 14.5964 52.7388 14.498C52.7319 14.3997 52.7009 14.3034 52.6475 14.2146C52.5941 14.1259 52.5193 14.0464 52.4275 13.9808C52.3357 13.9151 52.2286 13.8646 52.1124 13.832L48.3584 12.7806C48.1238 12.7149 47.8661 12.7265 47.642 12.8127C47.418 12.899 47.246 13.0529 47.1638 13.2407L45.8497 16.2432V16.2438C45.7522 16.4686 45.5999 16.6756 45.4016 16.853C45.2034 17.0304 44.9632 17.1746 44.6948 17.2772L44.6226 17.3053C44.109 17.5017 43.6492 17.7777 43.2699 18.1172C42.8905 18.4568 42.5991 18.8532 42.4126 19.2834L40.0981 24.5718C39.9838 24.8326 39.924 25.1067 39.9213 25.3831L38.2578 21.7709C38.256 21.7672 38.2538 21.7638 38.2521 21.7601L44.8594 13.2157C44.9903 13.0466 45.0317 12.8428 44.9747 12.6492C44.9177 12.4556 44.7669 12.288 44.5555 12.1834L41.3673 10.6047C41.2626 10.5529 41.1461 10.518 41.0246 10.5022C40.9031 10.4864 40.7788 10.4899 40.659 10.5124C40.5392 10.535 40.426 10.5763 40.3261 10.6338C40.2262 10.6914 40.1414 10.7641 40.0767 10.8479L38.1035 13.399L35.8735 12.2953L38.1938 10.2546C38.2846 10.1748 38.3528 10.0802 38.3937 9.97727C38.4346 9.87438 38.4473 9.76564 38.4308 9.65848C38.4143 9.55132 38.3691 9.44827 38.2983 9.35637C38.2275 9.26447 38.1327 9.18588 38.0204 9.12599L35.2079 7.62599C35.0309 7.53158 34.819 7.48813 34.6071 7.50279C34.3952 7.51744 34.1958 7.58931 34.0416 7.70661L30.586 10.3363C30.5279 10.3805 30.4771 10.4305 30.435 10.4851L25.9953 16.225C25.9305 16.3088 25.887 16.4019 25.8672 16.4991C25.8474 16.5963 25.8517 16.6957 25.8799 16.7916C25.9082 16.8875 25.9597 16.978 26.0316 17.0579C26.1036 17.1378 26.1945 17.2057 26.2992 17.2575L35.6451 21.8838L29.4117 24.3775C29.2938 24.4247 29.1896 24.4912 29.1061 24.5728C29.0225 24.6544 28.9614 24.7491 28.9267 24.8508C28.892 24.9526 28.8845 25.059 28.9047 25.1632C28.9249 25.2675 28.9723 25.3671 29.0439 25.4556L33.6563 31.1574C33.7817 31.3125 33.9742 31.4251 34.1969 31.4737C34.4196 31.5223 34.6569 31.5035 34.8634 31.4208L40.733 29.0729C40.9394 28.9903 41.1005 28.8498 41.1854 28.6782C41.2704 28.5066 41.2732 28.316 41.1935 28.1428L40.6851 27.039C41.0428 27.371 41.5036 27.6217 42.021 27.7657L45.3833 28.7075C45.7717 28.8164 46.1831 28.863 46.594 28.8447C47.0049 28.8264 47.4073 28.7434 47.7782 28.6006C48.149 28.4579 48.4811 28.258 48.7554 28.0125C49.0296 27.7671 49.2408 27.4807 49.3767 27.17L51.6912 21.8815C51.8808 21.4521 51.962 20.9969 51.9301 20.5422C51.8983 20.0876 51.754 19.6425 51.5057 19.2327L51.4706 19.175C51.3409 18.961 51.2655 18.7285 51.2489 18.4909C51.2323 18.2534 51.2747 18.0156 51.3738 17.7913L51.3732 17.7907ZM28.0831 16.3765L31.9658 11.3565L34.7909 9.20624L36.0732 9.89061L33.7276 11.9538C33.635 12.0352 33.5659 12.132 33.5253 12.2372C33.4847 12.3424 33.4736 12.4535 33.4927 12.5626C33.5118 12.6716 33.5607 12.776 33.6359 12.8682C33.7111 12.9604 33.8108 13.0383 33.9278 13.0962L37.914 15.0695C38.1254 15.1741 38.3802 15.2073 38.6222 15.1617C38.8642 15.1161 39.0736 14.9954 39.2044 14.8263L41.1776 12.2751L42.772 13.0644L36.8525 20.7178L28.0831 16.3765ZM34.7745 29.779L31.1872 25.3441L36.8601 23.0753L39.1428 28.0312L34.7745 29.779ZM47.6066 26.6739C47.5519 26.7987 47.4671 26.9137 47.357 27.0124C47.2468 27.111 47.1134 27.1912 46.9645 27.2486C46.8155 27.306 46.6539 27.3393 46.4888 27.3467C46.3238 27.3541 46.1585 27.3354 46.0025 27.2917L42.6403 26.35C42.4843 26.3063 42.3405 26.2384 42.2173 26.1503C42.0941 26.0622 41.9938 25.9555 41.9221 25.8363C41.8504 25.7171 41.8088 25.5878 41.7995 25.4558C41.7903 25.3238 41.8137 25.1916 41.8684 25.0668L43.4614 21.4265L49.1998 23.0339L47.6066 26.6739ZM49.9211 21.3856L49.8194 21.6181L44.0801 20.0107L44.182 19.7782C44.2878 19.5342 44.4532 19.3093 44.6684 19.1167C44.8836 18.9241 45.1445 18.7676 45.4359 18.6562L45.508 18.6281C46.2059 18.361 46.7956 17.9418 47.2092 17.4187L49.3935 18.0305C49.3089 18.6459 49.4429 19.2678 49.7803 19.8249L49.8154 19.8825C49.9563 20.115 50.0381 20.3676 50.0562 20.6256C50.0742 20.8836 50.028 21.1419 49.9203 21.3856H49.9211ZM49.914 16.5875L47.9296 16.0317L48.6244 14.4442L50.608 15L49.914 16.5875Z" fill="#0E9F6E"/>
<path d="M27.2623 43.1574C27.3877 43.3124 27.58 43.425 27.8026 43.4735C28.0252 43.5221 28.2624 43.5033 28.4688 43.4208L34.3385 41.0729C34.5448 40.9903 34.7058 40.8498 34.7908 40.6782C34.8757 40.5066 34.8785 40.316 34.7988 40.1428L31.8633 33.7701C31.8178 33.6711 31.7466 33.5809 31.6545 33.5054C31.5624 33.4299 31.4514 33.3708 31.3288 33.332C31.2062 33.2931 31.0748 33.2754 30.943 33.28C30.8113 33.2846 30.6822 33.3113 30.5643 33.3585L23.0174 36.3772C22.8995 36.4244 22.7954 36.491 22.7118 36.5725C22.6282 36.6541 22.5671 36.7488 22.5324 36.8505C22.4976 36.9523 22.4901 37.0587 22.5103 37.163C22.5305 37.2672 22.578 37.3668 22.6496 37.4554L27.2623 43.1574ZM30.4666 35.0749L32.7493 40.0312L28.3808 41.7787L24.7936 37.3438L30.4666 35.0749Z" fill="#0E9F6E"/>
<path d="M23.4427 31.5331L30.3256 31.502L32.4594 33.527L33.8932 32.5602L31.4765 30.2666C31.3884 30.1831 31.2786 30.1159 31.1548 30.0699C31.0309 30.0238 30.896 30 30.7594 30H30.7542L23.4321 30.0331L23.4427 31.5331Z" fill="#0E9F6E"/>
<path d="M24.2009 15.6064L28.4522 10.8374C28.532 10.7479 28.5862 10.6454 28.611 10.5373C28.6358 10.4291 28.6306 10.318 28.5957 10.2116L27.6446 7.30957L25.8309 7.6902L26.6711 10.2522L22.675 14.7354L24.2009 15.6064Z" fill="#0E9F6E"/>
<path d="M43.8822 44.2499C44.0053 44.2501 44.1273 44.2307 44.241 44.1931C44.3548 44.1554 44.4581 44.1 44.5451 44.0303L53.1629 37.136C53.25 37.0664 53.3191 36.9837 53.3662 36.8927C53.4133 36.8017 53.4375 36.7042 53.4375 36.6057C53.4375 36.5072 53.4133 36.4096 53.3662 36.3186C53.3191 36.2276 53.25 36.145 53.1629 36.0753L50.3575 33.8309L49.0313 34.8915L51.174 36.6057L43.8819 42.4394L38.5786 38.1967L38.5645 38.1856L35.3449 35.7157L36.6704 34.6553L39.9188 37.147C40.0958 37.2828 40.3322 37.3577 40.5775 37.3556C40.8227 37.3536 41.0571 37.2747 41.2306 37.136L44.5451 34.4843C44.7209 34.3436 44.8196 34.1529 44.8196 33.954C44.8196 33.7551 44.7209 33.5643 44.5451 33.4237L41.8934 31.3024L43.2188 30.2417L47.3842 33.5741L48.7101 32.5134L43.8819 28.6509C43.7949 28.5812 43.6915 28.526 43.5778 28.4883C43.464 28.4506 43.3421 28.4312 43.2189 28.4312C43.0958 28.4312 42.9739 28.4506 42.8601 28.4883C42.7464 28.526 42.643 28.5812 42.556 28.6509L39.9047 30.7721C39.7289 30.9127 39.6302 31.1035 39.6302 31.3024C39.6302 31.5013 39.7289 31.692 39.9047 31.8327L42.5563 33.954L40.5539 35.556L37.3056 33.0644C37.1286 32.9285 36.8921 32.8536 36.6468 32.8557C36.4016 32.8577 36.1671 32.9366 35.9937 33.0753L33.3422 35.1967C33.254 35.2673 33.1843 35.3512 33.1371 35.4437C33.09 35.5361 33.0664 35.6351 33.0677 35.7349C33.069 35.8347 33.0952 35.9333 33.1447 36.0249C33.1943 36.1165 33.2662 36.1993 33.3563 36.2684L37.2599 39.2624L43.2188 44.0303C43.3058 44.1001 43.4092 44.1554 43.523 44.1931C43.6369 44.2308 43.7589 44.2501 43.8822 44.2499Z" fill="#0E9F6E"/>
<path d="M3.75 28.5V34.5H5.625V28.8105L9.10043 26.0303C9.23017 25.9265 9.31898 25.7945 9.35588 25.6508C9.39277 25.507 9.37611 25.3577 9.30797 25.2214L7.53645 21.6784L9.30598 14.6024L14.2911 10.2517L18.2299 6.74995H26.1347L29.7727 7.47755C29.9219 7.50745 30.0781 7.50745 30.2273 7.47755L33.8653 6.74995H42.7364L48.0867 11.0303C48.1456 11.0774 48.2122 11.1181 48.2845 11.1511L54.3087 13.905L53.168 21.6623L55.0302 21.8376L56.2433 13.5876C56.2648 13.4415 56.2321 13.2935 56.1493 13.1621C56.0664 13.0307 55.9371 12.9218 55.7774 12.8488L49.3242 9.89855L43.7879 5.46961C43.7009 5.39997 43.5975 5.34472 43.4838 5.30703C43.37 5.26934 43.2481 5.24995 43.125 5.24995H36.0722L37.433 2.52848C37.494 2.40631 37.5139 2.27344 37.4904 2.14321C37.467 2.01297 37.4012 1.88996 37.2995 1.78651C37.1979 1.68307 37.064 1.60284 36.9114 1.55387C36.7587 1.50491 36.5927 1.48893 36.4298 1.50755C32.1649 1.99514 27.8351 1.99514 23.5702 1.50755C23.4073 1.48893 23.2413 1.50491 23.0886 1.55387C22.936 1.60284 22.8021 1.68307 22.7005 1.78651C22.5988 1.88996 22.533 2.01297 22.5096 2.14321C22.4861 2.27344 22.506 2.40631 22.567 2.52848L23.9278 5.24995H17.8125C17.6811 5.24995 17.5512 5.27205 17.4311 5.31482C17.3111 5.35759 17.2036 5.42007 17.1157 5.4982L12.9023 9.24314L7.74609 13.7431C7.63036 13.8441 7.55141 13.9685 7.51781 14.1029L5.64281 21.6029C5.6072 21.7455 5.62417 21.8934 5.69168 22.0285L7.33711 25.3191L4.02422 27.9694C3.9372 28.0391 3.8682 28.1218 3.82114 28.2129C3.77409 28.3039 3.74992 28.4014 3.75 28.5ZM35.1014 3.15258L34.0528 5.24995H33.75C33.6734 5.24994 33.597 5.25746 33.5227 5.27236L30 5.97689L26.4773 5.27236C26.403 5.25746 26.3266 5.24994 26.25 5.24995H25.9472L24.8986 3.15258C28.2896 3.44676 31.7104 3.44676 35.1014 3.15258Z" fill="#0E9F6E"/>
<path d="M3.75 42C3.75 42.0985 3.77424 42.1961 3.82135 42.2871C3.86846 42.378 3.93752 42.4607 4.02457 42.5304L8.71207 46.2804C8.79913 46.35 8.90248 46.4053 9.01623 46.443C9.12997 46.4806 9.25188 46.5 9.375 46.5H23.4375C23.4819 46.5 23.5262 46.4975 23.5702 46.4924L30.0355 45.7536L44.0002 46.4983C44.1216 46.5047 44.2435 46.4922 44.359 46.4615L52.7965 44.2115C52.9201 44.1785 53.0337 44.1253 53.1302 44.0553C53.2266 43.9852 53.3038 43.8999 53.3568 43.8046L57.1068 37.0546C57.196 36.8939 57.2118 36.7131 57.1514 36.544L55.2941 31.3433L54.3828 26.2407L54.804 23.377L52.9419 23.2017L52.5064 26.1624C52.4969 26.2268 52.4979 26.2919 52.5094 26.3561L53.4469 31.6061C53.4529 31.6399 53.4619 31.6733 53.4736 31.7061L55.2548 36.6943L51.8111 42.8931L43.9407 44.9919L30.0621 44.2513C29.997 44.2477 29.9317 44.2497 29.8671 44.2572L23.3709 45H9.76324L5.625 41.6893V35.9778H3.75V42Z" fill="#0E9F6E"/>
<path d="M42.1875 8.25H40.3125V9.75H42.1875V8.25Z" fill="#0E9F6E"/>
<path d="M51.5625 30H49.6875V31.5H51.5625V30Z" fill="#0E9F6E"/>
<path d="M38.4375 42H36.5625V43.5H38.4375V42Z" fill="#0E9F6E"/>
<path d="M22.5 42H20.625V43.5H22.5V42Z" fill="#0E9F6E"/>
<path d="M12.1875 15H10.3125V16.5H12.1875V15Z" fill="#0E9F6E"/>
</svg>
