<svg width="46" height="50" viewBox="0 0 46 50" fill="none" xmlns="http://www.w3.org/2000/svg">
<path d="M45.06 33.8576L43.0275 30.1976L38.6575 32.6276L40.6875 36.2801C40.8075 36.4926 40.8925 36.7126 40.9475 36.9401C41.0394 37.3532 41.0274 37.7827 40.9125 38.1901C40.8518 38.3964 40.7644 38.5939 40.6525 38.7776C40.4416 39.1389 40.1433 39.4415 39.785 39.6576C39.3973 39.8878 38.9534 40.0064 38.5025 40.0001H27V35.0001L17 42.5001L27 50.0001V45.0001H38.5025C39.1975 45.0001 39.8825 44.9076 40.53 44.7276C41.7808 44.3825 42.9183 43.7133 43.8275 42.7876C44.2725 42.3401 44.6575 41.8376 44.9675 41.3051C45.9541 39.6377 46.2552 37.6525 45.8075 35.7676C45.6424 35.1012 45.3911 34.4591 45.06 33.8576ZM6.65504 22.5976L0.88004 34.1476C0.580997 34.7455 0.361628 35.3801 0.22754 36.0351C-0.0167471 37.2618 0.049958 38.5301 0.421571 39.7245C0.793184 40.9188 1.45788 42.001 2.35504 42.8726C2.80004 43.3076 3.29504 43.6876 3.84254 44.0051C4.98388 44.6571 6.27559 45.0001 7.59004 45.0001H12V40.0001H7.59004C7.15233 40.0013 6.72174 39.8893 6.34004 39.6751C5.97546 39.4654 5.67141 39.1648 5.45754 38.8026C5.23804 38.4496 5.11001 38.0475 5.08504 37.6326C5.07298 37.4273 5.08811 37.2214 5.13004 37.0201C5.17504 36.8026 5.25004 36.5876 5.35254 36.3801L10.9925 25.1001L14.99 27.4076L13.495 15.0001L2.00004 19.9101L6.65504 22.5976ZM38.495 27.4101L39.99 15.0001L35.895 17.3626L28.7875 4.57009C28.2914 3.66021 27.6091 2.86512 26.785 2.23664C25.961 1.60816 25.0137 1.16042 24.005 0.92259C23.3724 0.775997 22.7244 0.706326 22.075 0.71509C20.7532 0.739873 19.4613 1.1133 18.33 1.79759C17.1225 2.53051 16.1494 3.593 15.525 4.86009L13.695 8.52009L18.1675 10.7576L19.9975 7.09509C20.11 6.87009 20.25 6.66759 20.4125 6.49009C20.7105 6.16491 21.0945 5.93086 21.52 5.81509C21.9521 5.69308 22.4083 5.68361 22.845 5.78759C23.1788 5.86592 23.4919 6.01461 23.7635 6.22371C24.0351 6.43281 24.259 6.69751 24.42 7.00009L31.565 19.8651L27 22.5001L38.495 27.4101Z" fill="#0E9F6E"/>
</svg>
