<svg width="60" height="60" viewBox="0 0 60 60" fill="none" xmlns="http://www.w3.org/2000/svg">
<path d="M16.5206 57.7811H43.9666C44.8836 57.7811 45.6788 57.5394 46.2752 57.1486C46.954 56.7027 47.3946 56.0703 47.4985 55.3721L48.6269 47.7003H11.7493L12.9904 55.3592C13.1051 56.0656 13.5493 56.7039 14.2334 57.1521C14.8245 57.5405 15.6107 57.7811 16.5206 57.7811ZM48.9546 45.4814L51.3815 28.9961H8.7206L11.3893 45.4814H48.9546ZM8.21552 46.8695C8.18149 46.7804 8.16179 46.6865 8.16179 46.5903L8.16358 46.5457L5.19582 28.2217C5.14388 28.1161 5.11701 28.0034 5.11701 27.8873C5.11701 27.8521 5.1206 27.8169 5.12418 27.7828L3.35284 16.8384H2.54866C1.84657 16.8384 1.20896 16.6507 0.746866 16.3491C0.268853 16.0361 0.000202294 15.6115 0 15.1687L0 10.5889C0 9.63839 0.596418 8.77359 1.55463 8.14347L1.55104 8.14112C2.23398 7.6936 3.09044 7.37673 4.02806 7.22469L6.42448 2.57212C6.44955 2.52401 6.47821 2.47824 6.51224 2.43365C7.14985 1.58997 8.00418 0.980971 9.04478 0.578491C10.0746 0.179532 11.2531 -0.00234682 12.5552 0.00469364V0H48.0949C48.1648 0 48.231 0.00234682 48.2973 0.00821387C49.8161 0.0481098 50.8818 0.295699 51.763 0.770931C52.6191 1.23208 53.1654 1.84225 53.7331 2.65425C53.7618 2.69767 53.7887 2.74109 53.8102 2.7845H53.8119L55.9272 7.21765C56.8961 7.36784 57.7648 7.69405 58.449 8.14112C58.4848 8.16576 58.5188 8.19041 58.551 8.21505C59.4484 8.83813 60 9.67477 60 10.5889V15.1699C60 15.6298 59.7134 16.0476 59.2531 16.3491C59.1994 16.3832 59.1457 16.4148 59.0884 16.4442C58.6424 16.6906 58.071 16.8384 57.4513 16.8384H56.563L54.9564 27.7418C54.9672 27.7887 54.9707 27.838 54.9707 27.8873C54.9707 28.0105 54.9403 28.1302 54.883 28.2405L50.8585 55.5798C50.6794 56.8001 49.8913 57.916 48.6698 58.7175C47.4609 59.5095 45.8418 60 43.9666 60H16.5206C14.6507 60 13.0424 59.5107 11.8388 58.721C10.6155 57.9195 9.82567 56.806 9.62866 55.5927L8.21552 46.8695ZM51.7075 26.7772L53.1672 16.8654H6.75582L8.3606 26.7772H51.7075ZM54.5266 9.35091L23.9642 9.34387H5.28716C4.76776 9.34387 4.29134 9.48468 3.94746 9.70997L3.94388 9.70763L3.9403 9.70997C3.76424 9.82537 3.62472 9.96242 3.52975 10.1132C3.43477 10.2641 3.38622 10.4257 3.38687 10.5889V14.6195H56.6131V10.5889C56.6131 10.2662 56.4251 9.97164 56.1206 9.75222L56.0525 9.70997C55.7283 9.49646 55.2968 9.36722 54.8382 9.34622C54.7325 9.35443 54.6287 9.3556 54.5266 9.35091ZM52.3397 7.12495L50.6096 3.49676C50.2657 3.01214 49.9666 2.66599 49.6191 2.47942C49.329 2.32218 48.8901 2.23769 48.1845 2.21775L48.0949 2.21892H12.5552V2.21423H12.5427C11.8513 2.21071 11.2531 2.29636 10.766 2.48528C10.3057 2.66364 9.90806 2.94995 9.58388 3.35713L7.64239 7.12495H52.3397Z" fill="#0E9F6E"/>
</svg>
